# xmcd CD database file
#
# Track frame offsets:
#	150
#	21825
#	42580
#	64415
#	88105
#	104602
#	124320
#	155742
#	174630
#	192340
#	211470
#	242032
#	262880
#
# Disc length: 4022 seconds
#
# Revision: 0
# Processed by: cddbd v1.4PL0 Copyright (c) Steve Scherf et al.
# Submitted via: Feurio! 1.66 - http://www.feurio.com
#
DISCID=c40fb40d
DTITLE=Crossroad Blues Band - Out of the Blue
DYEAR=1900
DGENRE=Bluesrock
TTITLE0=Out of the Blue
TTITLE1=Got to move
TTITLE2=Texas trip
TTITLE3=Snow is falling
TTITLE4=Aeroplain Blues
TTITLE5=Rubin red lips
TTITLE6=Prison bound
TTITLE7=Boogie guitar
TTITLE8=Little sweet
TTITLE9=Jambalaya
TTITLE10=Just kiss me
TTITLE11=My Baby
TTITLE12=Love that burns
EXTD=
EXTT0=
EXTT1=
EXTT2=
EXTT3=
EXTT4=
EXTT5=
EXTT6=
EXTT7=
EXTT8=
EXTT9=
EXTT10=
EXTT11=
EXTT12=
PLAYORDER=
